<svg xmlns="http://www.w3.org/2000/svg" xmlns:xlink="http://www.w3.org/1999/xlink" width="71" height="65" viewBox="0 0 71 65"><defs><path id="a" d="M0 32.162v31.772h63.548V.39H0z"/><path id="c" d="M7.048.878v6.123H.928V.878h6.12z"/></defs><g fill="none" fill-rule="evenodd"><g transform="translate(0 .938)"><mask id="b" fill="#fff"><use xlink:href="#a"/></mask><path fill="#D13339" d="M62.283 29.215a5.96 5.96 0 0 1-2.208-11.495 31.987 31.987 0 0 0-1.273-2.265A8.914 8.914 0 0 1 48.483 5.136 31.627 31.627 0 0 0 31.773.389C14.225.39 0 14.615 0 32.164c0 17.548 14.225 31.771 31.773 31.771 17.55 0 31.775-14.223 31.775-31.771 0-1.032-.055-2.05-.15-3.054a6.09 6.09 0 0 1-1.115.105" mask="url(#b)"/></g><g transform="translate(63.934 11.593)"><mask id="d" fill="#fff"><use xlink:href="#c"/></mask><path fill="#9AB1C5" d="M7.048 3.94a3.06 3.06 0 1 0-6.121-.002 3.06 3.06 0 0 0 6.12.002" mask="url(#d)"/></g><path fill="#283846" d="M64.874 7.61a7.61 7.61 0 1 0-15.219 0 7.61 7.61 0 0 0 15.219 0"/><path fill="#5D717F" d="M66.922 24.193a4.637 4.637 0 1 0-9.273 0 4.636 4.636 0 1 0 9.273 0"/><path fill="#FFF" d="M44.593 19.794c-.303-.749-.766-1.501-1.237-1.913-.601-.527-1.326-.784-2.142-.784-2.053 0-3.452 1.51-3.452 3.121 0 .653.19 1.369.646 2.487 1.11 2.706 2.764 6.732 5.086 12.38h-7.462c-2.107 0-2.544.395-3.329 2.126-.763 1.689-3.822 8.932-4.327 10.133h7.052l2.563-6.52h7.861s2.275 5.508 2.286 5.538c.355.834.573.982 1.653.982h6.094s-10.95-26.703-11.292-27.55"/><path fill="#FFF" d="M26.437 30.781c-.921.768-2.254 1.096-4.295 1.096h-3.284v-8.543h3.284c2.04 0 3.374.327 4.295 1.093.828.69 1.29 1.738 1.29 3.167 0 1.43-.462 2.497-1.29 3.187m5.368-10.507c-1.996-1.925-5.024-2.967-9.114-2.967H11.774v30.037h7.083v-9.48h3.34c4.124 0 7.108-1.046 9.226-3.004 1.943-1.797 3.146-4.392 3.146-7.594v-.08c0-2.889-1.03-5.236-2.764-6.912"/></g></svg>