<svg xmlns="http://www.w3.org/2000/svg" viewBox="0 0 1899.39 453.27"><defs><style>.cls-1{fill:#1dcbda;}.cls-2{fill:#fff;}.cls-3{fill:#272727;}</style></defs><title>Asset 7</title><g id="Layer_2" data-name="Layer 2"><g id="Layer_1-2" data-name="Layer 1"><rect class="cls-1" width="362" height="362" rx="30.9" ry="30.9"/><path class="cls-2" d="M180.82,284.55q-20.19,0-34.85-5.67a64.81,64.81,0,0,1-24.2-15.77A63,63,0,0,1,107.67,239a98.85,98.85,0,0,1-4.56-30.84V89h43.15V204.61a64.93,64.93,0,0,0,2.63,19.78,36.4,36.4,0,0,0,7.19,13.28A25.62,25.62,0,0,0,167.13,245a43.86,43.86,0,0,0,14.24,2.21q15.77,0,25.58-9.68t9.82-32.91V89h43.15V208.21a97.51,97.51,0,0,1-4.7,31,63.44,63.44,0,0,1-14.38,24.2A64.47,64.47,0,0,1,216.23,279Q201.29,284.54,180.82,284.55Z"/><path class="cls-3" d="M530.22,188.29V7.42H600.3V200.05c0,52.9,25.77,82.75,75.51,82.75,52.45,0,75.06-32.1,75.06-82.75V7.42h69.18V194.17c0,98.12-54.71,156-144.25,156C577.24,350.17,530.22,281.9,530.22,188.29Z"/><path class="cls-3" d="M951.19,175.18V248c0,25.77,23.51,37.53,52.9,37.53v63.76C935.82,349.27,887,309,887,249.79V175.18H852.62V115.95H887V86.1l64.21-46.57v76.42h54.26v59.24Z"/><path class="cls-3" d="M1264.09,230.35c0,65.11-54.71,118.92-120.28,118.92s-118.47-53.81-118.47-118.92c0-66,52.9-119.38,118.47-119.38S1264.09,164.33,1264.09,230.35Zm-65.57,0c0-32.1-23.51-55.17-54.71-55.17-29.39,0-53.36,23.06-53.36,55.17,0,32.56,24,55.17,53.36,55.17C1175,285.51,1198.53,262.9,1198.53,230.35Z"/><path class="cls-3" d="M1299.81,453.27V115.95H1364v15.83c9.95-10.85,34.82-20.8,55.62-20.8,62.85,0,112.14,53.36,112.14,118.47,0,66-51.1,119.83-113.5,119.83-19,0-42.05-6.78-54.26-21.25V453.27Zm61.5-223.38c0,32.56,22.16,55.62,52,55.62,29.39,0,53.36-23.06,53.36-55.62,0-32.1-24-54.71-53.36-54.71C1383.47,175.18,1361.31,197.79,1361.31,229.9Z"/><path class="cls-3" d="M1562.07,39.08c0-18.09,17.18-35.27,37.08-35.27,21.71,0,38.44,16.73,38.44,35.27,0,19.9-16.73,36.63-38.44,36.63C1579.26,75.7,1562.07,59,1562.07,39.08Zm69.64,305.22H1567.5V115.95h64.21Z"/><path class="cls-3" d="M1899.39,115.95V344.3h-64.21V328c-9.95,13.11-34.82,21.25-55.62,21.25-62.4,0-112.14-53.81-112.14-118.92,0-66,51.1-119.38,112.14-119.38,20.35,0,45.67,9.95,55.62,20.8V115.95Zm-61.5,114.4c0-32.1-22.16-55.17-52-55.17-29.39,0-53.36,23.06-53.36,55.17,0,32.56,24,55.17,53.36,55.17C1815.74,285.51,1837.9,262.9,1837.9,230.35Z"/></g></g></svg>