<svg xmlns="http://www.w3.org/2000/svg" viewBox="0 0 2098.97 483.35">
  <defs>
    <style>
      .cls-1 {
        fill: #272727;
      }

      .cls-2 {
        fill: #1dcbda;
      }
    </style>
  </defs>
  <title>logo</title>
  <g id="Layer_2" data-name="Layer 2">
    <g id="Layer_1-2" data-name="Layer 1">
      <g>
        <path class="cls-1" d="M692.14,396.44q-37.11,0-64-10.42t-44.47-29a115.68,115.68,0,0,1-25.92-44.22q-8.39-25.66-8.39-56.67V37.1h79.29V249.55q0,21.35,4.83,36.34t13.21,24.4A47.08,47.08,0,0,0,667,323.76a80.6,80.6,0,0,0,26.18,4.07q29,0,47-17.79t18-60.48V37.1H837.5V256.16q0,31-8.64,56.92a116.57,116.57,0,0,1-26.43,44.47q-17.8,18.56-45.23,28.72T692.14,396.44Z"/>
        <path class="cls-1" d="M906.11,55.4l75.73-12.2V122h91v63h-91v94q0,23.9,8.39,38.12t33.8,14.23a144.72,144.72,0,0,0,25.16-2.29,129.23,129.23,0,0,0,23.63-6.35l10.67,59a214.37,214.37,0,0,1-30.5,9.66q-16.77,4.06-41.17,4.07-31,0-51.33-8.39T928,363.66q-12.2-15-17-36.34A214.18,214.18,0,0,1,906.11,280Z"/>
        <path class="cls-1" d="M1374.21,255.14q0,31.52-9.15,57.69t-26.43,44.73a118.92,118.92,0,0,1-41.42,28.72q-24.15,10.16-54.13,10.17-29.48,0-53.62-10.17A118.77,118.77,0,0,1,1148,357.56q-17.28-18.55-26.94-44.73t-9.66-57.69q0-31.51,9.91-57.43t27.45-44.22A123.31,123.31,0,0,1,1190.48,125q24.13-10.16,52.6-10.17,29,0,53.11,10.17a120.74,120.74,0,0,1,41.42,28.46q17.27,18.3,26.94,44.22T1374.21,255.14Zm-77.25,0q0-35.07-14-55.15t-39.9-20.08q-25.92,0-40.15,20.08t-14.23,55.15q0,35.07,14.23,55.65t40.15,20.58q25.92,0,39.9-20.58T1297,255.14Z"/>
        <path class="cls-1" d="M1681.2,255.65q0,31-7.62,56.42t-22.36,43.71a101,101,0,0,1-36.59,28.46q-21.86,10.16-50.32,10.17a135.72,135.72,0,0,1-29.48-3,141.39,141.39,0,0,1-26.43-8.64V483.35h-75.73V131.13q10.16-3,23.38-5.85t27.7-4.83q14.49-2,29.48-3.3t28.72-1.27q33,0,59,9.91t43.71,28q17.78,18,27.19,44T1681.2,255.65Zm-77.25,2q0-35.07-15.76-56.16t-46.76-21.09q-10.17,0-18.81.76T1508.39,183V319.69q7.11,4.57,18.55,7.62a89.35,89.35,0,0,0,23.13,3Q1603.93,330.37,1603.94,257.69Z"/>
        <path class="cls-1" d="M1822.49,44.73q0,20.85-13.47,32.78a48.21,48.21,0,0,1-63.53,0Q1732,65.57,1732,44.73t13.47-32.78a48.21,48.21,0,0,1,63.53,0Q1822.48,23.89,1822.49,44.73Zm-7.12,344.6h-75.73V122h75.73Z"/>
        <path class="cls-1" d="M1982.58,114.87q33.54,0,55.91,7.62t35.83,21.85a80.48,80.48,0,0,1,19.06,34.56q5.59,20.33,5.59,45.23V381.7q-16.27,3.56-45.23,8.39t-70.14,4.83a222.35,222.35,0,0,1-47-4.57q-21.1-4.57-36.34-15a68.53,68.53,0,0,1-23.38-27.19q-8.14-16.77-8.13-41.17,0-23.37,9.4-39.64a72.36,72.36,0,0,1,25.16-25.92,113.79,113.79,0,0,1,36.09-14,202.75,202.75,0,0,1,42.18-4.32,240.88,240.88,0,0,1,26.18,1.27,117.5,117.5,0,0,1,18.55,3.3v-7.12q0-19.31-11.69-31t-40.66-11.69a259.5,259.5,0,0,0-38.12,2.8,164,164,0,0,0-32.53,7.88l-9.66-61q6.6-2,16.52-4.32t21.6-4.07q11.69-1.77,24.65-3T1982.58,114.87Zm6.1,221.6q11.17,0,21.35-.51a145.93,145.93,0,0,0,16.26-1.52V277q-4.57-1-13.72-2a153.53,153.53,0,0,0-16.77-1,151,151,0,0,0-20.08,1.27A52.59,52.59,0,0,0,1959.2,280a28.31,28.31,0,0,0-11.18,9.66q-4.08,6.1-4.07,15.25,0,17.8,11.94,24.65T1988.68,336.46Z"/>
      </g>
      <rect class="cls-2" y="39.56" width="362" height="362" rx="30.9" ry="30.9"/>
    </g>
  </g>
</svg>
