<svg xmlns="http://www.w3.org/2000/svg" viewBox="0 0 262 270">
  <defs>
    <style>
      .cls-1 {
        fill: #fff;
      }
    </style>
  </defs>
  <title>time</title>
  <g id="Layer_2" data-name="Layer 2">
    <g id="Layer_1-2" data-name="Layer 1">
      <g>
        <path class="cls-1" d="M183,73.13V54H78.75V73.13A14.92,14.92,0,0,1,63.87,88h134A14.92,14.92,0,0,1,183,73.13Z"/>
        <path class="cls-1" d="M212.75,54V73.13A14.92,14.92,0,0,1,197.87,88H262V54Z"/>
        <path class="cls-1" d="M49,73.13V54H0V88H63.87A14.92,14.92,0,0,1,49,73.13Z"/>
        <path class="cls-1" d="M0,270H262V110H0ZM185.6,138H235v41H185.6Zm0,66H235v41H185.6Zm-78.8-66h49.4v41H106.8Zm0,66h49.4v41H106.8ZM28,138H77.4v41H28Zm0,66H77.4v41H28Z"/>
        <path class="cls-1" d="M78.75,14.87A14.92,14.92,0,0,0,63.87,0h0A14.92,14.92,0,0,0,49,14.87V54H78.75Z"/>
        <path class="cls-1" d="M78.75,73.13V54H49V73.13A14.92,14.92,0,0,0,63.87,88h0A14.92,14.92,0,0,0,78.75,73.13Z"/>
        <path class="cls-1" d="M212.75,14.87A14.92,14.92,0,0,0,197.87,0h0A14.92,14.92,0,0,0,183,14.87V54h29.75Z"/>
        <path class="cls-1" d="M212.75,73.13V54H183V73.13A14.92,14.92,0,0,0,197.87,88h0A14.92,14.92,0,0,0,212.75,73.13Z"/>
      </g>
    </g>
  </g>
</svg>
